<svg width="512" height="512" viewBox="0 0 512 512" xmlns="http://www.w3.org/2000/svg">
  <defs>
    <linearGradient id="g" x1="140" y1="120" x2="380" y2="440" gradientUnits="userSpaceOnUse">
      <stop offset="0" stop-color="#7CF86B"/>
      <stop offset="1" stop-color="#22C55E"/>
    </linearGradient>
  </defs>
  <rect width="512" height="512" rx="112" fill="#0A0A0A"/>
  <g fill="none" stroke="url(#g)" stroke-width="26" stroke-linecap="round" stroke-linejoin="round">
    <!-- antena -->
    <line x1="256" y1="120" x2="256" y2="170"/>
    <!-- cabeza -->
    <path d="M176 186h160a44 44 0 0 1 44 44v72a44 44 0 0 1 -44 44H176a44 44 0 0 1 -44 -44v-72a44 44 0 0 1 44 -44Z"/>
  </g>
  <!-- perilla de la antena -->
  <circle cx="256" cy="112" r="20" fill="url(#g)"/>
  <!-- ojos -->
  <rect x="196" y="238" width="26" height="42" rx="13" fill="url(#g)"/>
  <rect x="290" y="238" width="26" height="42" rx="13" fill="url(#g)"/>
  <!-- velas de trading colgando -->
  <g stroke="url(#g)" stroke-width="15" stroke-linecap="round">
    <line x1="196" y1="360" x2="196" y2="430"/>
    <line x1="228" y1="360" x2="228" y2="448"/>
    <line x1="260" y1="360" x2="260" y2="424"/>
    <line x1="292" y1="360" x2="292" y2="440"/>
  </g>
  <g fill="url(#g)">
    <rect x="187" y="378" width="18" height="34" rx="4"/>
    <rect x="219" y="388" width="18" height="42" rx="4"/>
    <rect x="251" y="374" width="18" height="30" rx="4"/>
    <rect x="283" y="392" width="18" height="34" rx="4"/>
  </g>
</svg>
